# xmcd
#
# Track frame offsets:
#   150
#   22414
#   39247
#   56033
#   70535
#   90708
#   106951
#   121272
#   137080
#   154058
#   166914
#   180981
#   196323
#   212359
#   228009
#   243390
#   256024
#
# Disc length: 3648 seconds
#
# Revision: 0
# Processed by: cddbd v1.5PL3 Copyright (c) Steve Scherf et al.
# Submitted via: Media_Universe 3.0
#
DISCID=d50e3e11
DTITLE=Toby Keith - Boomtown and Toby Keith
DYEAR=1900
DGENRE=Country
TTITLE0=Who's That Man
TTITLE1=Big Ole Truck
TTITLE2=Victoria's Secret
TTITLE3=No Honor Amoung Theives
TTITLE4=Upstairs, Downtown
TTITLE5=In Other Words
TTITLE6=Woman Behind The Man
TTITLE7=Life Was A Play (the world a stage)
TTITLE8=Boomtown
TTITLE9=Gimme 8 Seconds
TTITLE10=He Ain't Worth Missing
TTITLE11=Under The Fall
TTITLE12=Some Kinda Good, Kinda Hold On Me
TTITLE13=Wish I Didn't Know
TTITLE14=Mama Come Quick
TTITLE15=Close But No Guitar
TTITLE16=Fightin'Side Of Me
EXTD=
EXTT0=
EXTT1=
EXTT2=
EXTT3=
EXTT4=
EXTT5=
EXTT6=
EXTT7=
EXTT8=
EXTT9=
EXTT10=
EXTT11=
EXTT12=
EXTT13=
EXTT14=
EXTT15=
EXTT16=
PLAYORDER=
